<?xml version="1.0" standalone="no"?>
<!DOCTYPE svg PUBLIC "-//W3C//DTD SVG 1.1//EN" "http://www.w3.org/Graphics/SVG/1.1/DTD/svg11.dtd" >
<svg xmlns="http://www.w3.org/2000/svg">
<metadata>
Created by FontForge 20120731 at Mon Sep 12 19:51:54 2016
 By admin
</metadata>
<defs>
<font id="iconfont" horiz-adv-x="1024" >
  <font-face 
    font-family="iconfont"
    font-weight="500"
    font-stretch="normal"
    units-per-em="1024"
    panose-1="2 0 6 3 0 0 0 0 0 0"
    ascent="896"
    descent="-128"
    x-height="792"
    bbox="34 -91 1024 896"
    underline-thickness="50"
    underline-position="-100"
    unicode-range="U+0078-E627"
  />
<missing-glyph horiz-adv-x="374" 
d="M34 0v682h272v-682h-272zM68 34h204v614h-204v-614z" />
    <glyph glyph-name=".notdef" horiz-adv-x="374" 
d="M34 0v682h272v-682h-272zM68 34h204v614h-204v-614z" />
    <glyph glyph-name=".null" horiz-adv-x="0" 
 />
    <glyph glyph-name="nonmarkingreturn" horiz-adv-x="341" 
 />
    <glyph glyph-name="x" unicode="x" horiz-adv-x="1001" 
d="M281 543q-27 -1 -53 -1h-83q-18 0 -36.5 -6t-32.5 -18.5t-23 -32t-9 -45.5v-76h912v41q0 16 -0.5 30t-0.5 18q0 13 -5 29t-17 29.5t-31.5 22.5t-49.5 9h-133v-97h-438v97zM955 310v-52q0 -23 0.5 -52t0.5 -58t-10.5 -47.5t-26 -30t-33 -16t-31.5 -4.5q-14 -1 -29.5 -0.5
t-29.5 0.5h-32l-45 128h-439l-44 -128h-29h-34q-20 0 -45 1q-25 0 -41 9.5t-25.5 23t-13.5 29.5t-4 30v167h911zM163 247q-12 0 -21 -8.5t-9 -21.5t9 -21.5t21 -8.5q13 0 22 8.5t9 21.5t-9 21.5t-22 8.5zM316 123q-8 -26 -14 -48q-5 -19 -10.5 -37t-7.5 -25t-3 -15t1 -14.5
t9.5 -10.5t21.5 -4h37h67h81h80h64h36q23 0 34 12t2 38q-5 13 -9.5 30.5t-9.5 34.5q-5 19 -11 39h-368zM336 498v228q0 11 2.5 23t10 21.5t20.5 15.5t34 6h188q31 0 51.5 -14.5t20.5 -52.5v-227h-327z" />
    <glyph glyph-name="uniE600" unicode="&#xe600;" 
d="M921 563l-253 -134v89q0 18 -12.5 31.5t-28.5 13.5l-249 -134v246q0 18 -11 31t-27 13h-237q-16 0 -27 -13t-11 -31v-582q0 -18 11 -31t27 -13h818q16 0 27 13t11 31v425q0 19 -11 32t-27 13zM356 585h-269v23h269v-23zM356 630h-269v22h269v-22zM579 317
q0 -9 -6.5 -15.5t-15.5 -6.5h-134q-10 0 -16.5 6.5t-6.5 15.5v22q0 10 6.5 16.5t16.5 6.5h134q9 0 15.5 -6.5t6.5 -16.5v-22zM870 317q0 -9 -6.5 -15.5t-16.5 -6.5h-134q-9 0 -15.5 6.5t-6.5 15.5v22q0 10 6.5 16.5t15.5 6.5h134q10 0 16.5 -6.5t6.5 -16.5v-22z" />
    <glyph glyph-name="uniE601" unicode="&#xe601;" 
d="M140 214h291q19 0 32 13t13 32v381q0 19 -13 32t-32 13h-291q-18 0 -31.5 -13t-13.5 -32v-381q0 -19 13.5 -32t31.5 -13zM287 248q-12 0 -20.5 8.5t-8.5 20.5t8.5 20.5t20.5 8.5t20.5 -8.5t8.5 -20.5t-8.5 -20.5t-20.5 -8.5zM288 324q-19 0 -33 14t-14 33.5t14 33.5
t33.5 14t33 -14t13.5 -33.5t-13.5 -33.5t-33.5 -14zM150 620h272v-69h-272v69zM834 380q-10 1 -16 9q-32 42 -83 61t-102 8q-12 -3 -21 6q-45 45 -107 59v-264q0 -31 -22 -52.5t-52 -21.5h-291q-25 0 -45 16t-26 40q0 2 -1.5 1.5t-1.5 -1.5v-2q0 -15 3 -31.5t12.5 -41.5
t33.5 -47t59 -34q5 -2 14 -2h633q9 0 14 2q40 13 67 36t38 49t14.5 42.5t3.5 32.5q0 53 -36 92t-88 43z" />
    <glyph glyph-name="uniE602" unicode="&#xe602;" 
d="M959 654q4 27 -11.5 48.5t-42.5 25.5l-108 17q-26 5 -48.5 -10.5t-26.5 -42.5l-92 -576q-2 -13 1.5 -25t10.5 -22.5t18.5 -17t24.5 -9.5l107 -17q27 -4 48.5 12t26.5 43l92 574v0zM506 22q27 0 46 18.5t19 45.5v595q0 27 -19 45.5t-46 18.5h-93q-27 0 -46 -18.5
t-19 -45.5v-595q0 -27 14.5 -45.5t41.5 -18.5h102v0zM506 471q9 0 15.5 -8.5t6.5 -20.5t-6.5 -20t-15.5 -8h-93q-9 0 -15.5 8t-6.5 20t6.5 20.5t15.5 8.5h93v0zM506 358q9 0 15.5 -8.5t6.5 -21t-6.5 -20.5t-15.5 -8h-93q-9 0 -15.5 8t-6.5 20.5t6.5 21t15.5 8.5h93v0z
M224 22q27 0 46 18.5t19 45.5v595q0 27 -19 45.5t-46 18.5h-94q-27 0 -46.5 -18.5t-19.5 -45.5v-595q0 -27 19.5 -45.5t46.5 -18.5h94v0zM134 244q-10 0 -16.5 8.5t-6.5 20.5t6.5 20.5t16.5 8.5h86q10 0 16 -8.5t6 -20.5q0 -13 -6 -21t-16 -8h-86v0zM224 524q10 0 15.5 -8
t5.5 -19q0 -13 -5.5 -20.5t-15.5 -7.5h-90q-10 0 -16.5 7.5t-6.5 20.5q0 11 6.5 19t16.5 8h90v0zM224 415q10 0 15.5 -8t5.5 -20.5t-5.5 -20.5t-15.5 -8h-90q-10 0 -16.5 8t-6.5 20.5t6.5 20.5t16.5 8h90v0z" />
    <glyph glyph-name="uniE603" unicode="&#xe603;" 
d="M895 759q-47 -7 -111 -7q-196 0 -275 80q-78 -79 -279 -79q-59 0 -103 6q-1 -37 -2 -93.5t3.5 -167t17.5 -143.5q28 -74 81 -152t107 -135.5t103 -94.5t74 -37q24 0 73.5 37t104 94t108.5 135.5t83 151.5q28 71 16 398zM842 585q0 -173 -15 -211q-25 -64 -73 -134
q-43 -64 -97 -124q-50 -54 -96 -90q-31 -25 -50 -32q-19 7 -50 32q-45 35 -94 90q-54 59 -96 123q-47 71 -72 136q-7 18 -12 79q-4 53 -5 131v113q25 -1 48 -1q90 0 161 16q70 16 118 46q47 -31 115 -47q71 -17 160 -17q28 0 57 2q1 -60 1 -112zM694 483h-144v144
q0 5 -3.5 8.5t-8.5 3.5h-52q-5 0 -8.5 -3.5t-3.5 -8.5v-144h-144q-5 0 -8.5 -3.5t-3.5 -8.5v-53q0 -5 3.5 -8.5t8.5 -3.5h144v-143q0 -5 3.5 -8.5t8.5 -3.5h52q5 0 8.5 3.5t3.5 8.5v143h144q5 0 8.5 3.5t3.5 8.5v53q0 5 -3.5 8.5t-8.5 3.5z" />
    <glyph glyph-name="uniE604" unicode="&#xe604;" 
d="M421 -26l-29 49l129 76l140 -72l-26 -51l-112 58zM851 106h-57v148l142 63l23 -52l-108 -48v-111v0zM230 106h-57v111l-108 48l23 52l142 -63v-148zM88 451l-23 52l108 48v111h57v-148zM936 451l-142 63v148h57v-111l108 -48zM521 669l-129 76l29 49l102 -60l112 58
l26 -51zM512 176q-95 0 -162.5 61t-67.5 147t67.5 147.5t162.5 61.5t162.5 -61.5t67.5 -147.5t-67.5 -147t-162.5 -61zM512 536q-71 0 -122 -44.5t-51 -107.5t51 -107.5t122.5 -44.5t122 44.5t50.5 107.5t-50.5 107.5t-122.5 44.5z" />
    <glyph glyph-name="uniE605" unicode="&#xe605;" 
d="M714 561l-31 -19v3l42 68v-5h10q34 0 58.5 -24t24.5 -59v-108q0 -148 -46 -241q-25 -49 -60 -76q-39 -30 -86 -30h-155q-27 0 -60 24q-1 1 -3.5 3t-3.5 2l23 36q1 0 4 -3l4 -4q23 -16 36 -16h155q33 0 60.5 21t47.5 62q42 84 42 222v108q0 22 -21 34.5t-41 1.5zM347 244
q9 -18 20 -37l-24 -39q-19 29 -34 57q-49 98 -81 164q-16 31 -6.5 64t37.5 50q29 18 62 9t50 -40l2 -3v149q0 35 24 59t59 24q13 0 25 -4q25 35 68 35t68 -35q12 4 25 4q15 0 30 -6l-24 -38q-16 3 -29 -5l-23 -15l-9 26q-4 12 -14.5 19.5t-23.5 7.5t-23.5 -7.5t-15.5 -19.5
l-9 -26l-22 15q-11 7 -23 7q-17 0 -29 -12t-12 -29v-307l-81 140q-9 16 -25 20q-4 1 -9 1q-11 0 -19 -5q-14 -8 -19 -25t3 -32zM756 833l75 -47l-530 -850l-75 47z" />
    <glyph glyph-name="uniE606" unicode="&#xe606;" 
d="M676 566q-32 31 -76.5 31t-75.5 -31q-28 -28 -31 -67t19 -70l-49 -49l26 -26l50 49q31 -22 70 -19t67 31q31 31 31 75t-31 76zM659 497q-11 -11 -26.5 -11t-26 11t-10.5 26t10.5 26t26 11t26.5 -11t11 -26t-11 -26zM437 303l30 29l-27 26l-115 -115q-7 -6 -8 -15
t4.5 -14.5t14 -4.5t15.5 8l13 13l56 -56q10 -10 23 3.5t3 22.5l-16 17l21 21l16 -17q10 -10 23 3.5t3 23.5zM512 832q-91 0 -174 -35.5t-143 -95.5t-95.5 -143t-35.5 -174t35.5 -174t95.5 -143t143 -95.5t174 -35.5t174 35.5t143 95.5t95.5 143t35.5 174t-35.5 174
t-95.5 143t-143 95.5t-174 35.5zM512 -14q-108 0 -199.5 53.5t-145 145t-53.5 199.5t53.5 199.5t145 145t199.5 53.5t199.5 -53.5t145 -145t53.5 -199.5t-53.5 -199.5t-145 -145t-199.5 -53.5z" />
    <glyph glyph-name="uniE607" unicode="&#xe607;" 
d="M512 832q-91 0 -174 -35.5t-143 -95.5t-95.5 -143t-35.5 -174t35.5 -174t95.5 -143t143 -95.5t174 -35.5t174 35.5t143 95.5t95.5 143t35.5 174t-35.5 174t-95.5 143t-143 95.5t-174 35.5zM512 -14q-108 0 -199.5 53.5t-145 145t-53.5 199.5t53.5 199.5t145 145
t199.5 53.5t199.5 -53.5t145 -145t53.5 -199.5t-53.5 -199.5t-145 -145t-199.5 -53.5zM695 468l-91 13q-7 1 -11 8l-40 83q-14 27 -41 27t-41 -27l-40 -83q-4 -7 -11 -8l-91 -13q-31 -4 -39 -30q-9 -26 14 -47l65 -65q6 -5 5 -12l-16 -91q-4 -24 9 -40q10 -11 25.5 -13.5
t31.5 5.5l81 43h7h7l81 -43q12 -6 25 -6q19 0 32 14q13 16 9 40l-16 91q-1 7 5 12l65 65q22 21 14 46.5t-39 30.5z" />
    <glyph glyph-name="uniE608" unicode="&#xe608;" 
d="M512 832q-91 0 -174 -35.5t-143 -95.5t-95.5 -143t-35.5 -174t35.5 -174t95.5 -143t143 -95.5t174 -35.5t174 35.5t143 95.5t95.5 143t35.5 174t-35.5 174t-95.5 143t-143 95.5t-174 35.5zM512 -14q-108 0 -199.5 53.5t-145 145t-53.5 199.5t53.5 199.5t145 145
t199.5 53.5t199.5 -53.5t145 -145t53.5 -199.5t-53.5 -199.5t-145 -145t-199.5 -53.5zM413 682h198l-49 -99h-100zM417 313l190 -138l29 35l-6 23l-195 142zM585 390l-48 168h-50l-23 -80zM411 292l-23 -82l124 -149l82 98zM458 457l-17 -62l180 -131l-27 94z" />
    <glyph glyph-name="uniE609" unicode="&#xe609;" 
d="M805 551q0 75 -41.5 140t-109 102t-144 37t-143.5 -37t-107.5 -102t-40.5 -140q0 -40 30 -105t71.5 -128.5t85 -122t71.5 -94t30 -36.5q12 14 32 37.5t71.5 90t90.5 125t71.5 125t32.5 108.5v0zM417 541q0 40 29 68t69 28t69 -28t29 -68t-29 -68t-69 -28t-69 28t-29 68v0
zM608 57q2 -4 2 -8q0 -19 -28.5 -33t-69 -14t-69 14t-28.5 33q0 4 1 8q-45 -8 -72 -23t-27 -32q0 -27 57 -45.5t138 -18.5t138 18.5t57 45.5q0 17 -27 32t-72 23v0zM608 57z" />
    <glyph glyph-name="uniE60A" unicode="&#xe60a;" 
d="M765 -16h-506v25q1 19 9.5 27.5t27.5 8.5q12 1 128 1h25v98h-24h-286q-72 0 -72 72v495q0 35 18.5 53.5t53.5 19.5q399 0 750 -1q71 0 71 -72v-495q0 -72 -72 -72h-283h-28q0 -72 1 -88q0 -3 6.5 -6.5t11.5 -3.5h120q36 0 45.5 -12t3.5 -50zM896 273v447q-23 1 -24 1
q-594 1 -718 1q-15 0 -20 -5.5t-5 -19.5v-401v-23h767zM546 207q0 14 -10 23.5t-23 8.5q-13 0 -22 -9.5t-9 -22.5t9 -22.5t22 -9.5t23 9.5t10 22.5zM546 207z" />
    <glyph glyph-name="uniE60B" unicode="&#xe60b;" 
d="M959 158v-1v0v-1q-1 -6 -5 -10q-6 -7 -17 -17q-49 -49 -104 -77q-40 -20 -77 -27q-46 -8 -90 1q-69 15 -139 70q-33 27 -53 50q-11 13 0 26q6 7 17 17q49 49 103 76q41 21 78 27q46 8 90 -1q69 -14 139 -70q33 -26 53 -49q4 -4 5 -10v-1v-1v-1v-1zM714 252
q-38 0 -65 -26.5t-27 -63t27 -63t65 -26.5t65 26.5t27 63t-27 63t-65 26.5zM714 118q-19 0 -32.5 13t-13.5 31.5t13.5 31.5t32.5 13t32.5 -13t13.5 -31.5t-13.5 -31.5t-32.5 -13zM476 293q-9 -6 -20 -6q-10 0 -19 6l-149 95l-70 -42q-9 -6 -19 -6q-14 0 -24 9.5t-10 22.5
q0 18 16 27v1l90 53q8 5 17 5q11 0 19 -6l149 -94l170 115q9 6 20 6q14 0 24 -9t10 -23q0 -16 -14 -26zM713 330v352h-581v-555h313q1 -5 2.5 -9.5t4.5 -10t5.5 -9t7.5 -9.5t8 -9l9 -9l8 -8h-392q-14 0 -23.5 9t-9.5 23v620q0 13 9.5 22.5t23.5 9.5h649q14 0 23.5 -9.5
t9.5 -22.5v-401q-10 2 -30.5 8t-30.5 8h-3h-3z" />
    <glyph glyph-name="uniE60C" unicode="&#xe60c;" 
d="M549 801q0 12 -9 20.5t-21 8.5q-13 0 -22 -8t-9 -21v-74h61v74zM908 559q10 5 13 16.5t-3 22.5q-8 13 -23 14q-11 0 -17 -3l-49 -37l29 -50zM306 664l52 29l-40 64q-8 13 -23 15q-10 0 -17 -4q-10 -7 -13.5 -18t2.5 -21zM771 729q7 10 3.5 21.5t-14.5 17.5q-12 5 -23.5 2
t-18.5 -13l-38 -64l52 -29zM210 571l-68 38q-4 3 -10 3q-20 1 -30 -15q-6 -10 -3 -21.5t14 -17.5l68 -37zM807 362q0 108 -82.5 184t-199.5 76t-200 -76t-83 -184v-305h565v305zM748 116h-446v259q0 50 33.5 94t85 68.5t104.5 24.5t104.5 -24.5t85 -68.5t33.5 -94v-259v0z
M911 -3h-773q-6 0 -10.5 -4t-4.5 -10v-30q0 -6 4.5 -10.5t10.5 -4.5h773q6 0 10.5 4.5t4.5 10.5v30q0 6 -4.5 10t-10.5 4zM636 470q-15 5 -28 -3q-9 -6 -13 -17l-37 -142l-106 64q-9 0 -18 -5q-13 -9 -14 -25l-57 -132q-1 -13 7.5 -23t21.5 -11q11 0 20 5q13 9 14 25l36 97
l118 -58q9 0 18 5q9 6 13 16l45 165q4 12 -2 23.5t-18 15.5z" />
    <glyph glyph-name="uniE60D" unicode="&#xe60d;" 
d="M252 435q-12 0 -20 10q-6 9 -4.5 19t10.5 16l185 136q12 9 26 2t14 -22v-87l146 107q12 10 26 2q15 -7 15 -22v-87l145 107q12 9 25 2q13 -6 13 -22v-136q0 -10 -7.5 -17.5t-17.5 -7.5t-17.5 7.5t-7.5 17.5v88l-146 -108q-12 -9 -25 -2t-13 22v88l-146 -108
q-13 -9 -26.5 -2t-13.5 22v88l-146 -108q-7 -5 -15 -5zM747 -34h-457q-10 0 -17 7t-7 17v175q0 11 7 18t17 7h457q10 0 17.5 -7t7.5 -18v-175q0 -10 -7.5 -17t-17.5 -7zM315 15h407v126h-407v-126zM932 -35h-840q-11 0 -18 7.5t-7 17.5v792q0 10 7 15.5t18 5.5h160
q11 0 18 -5.5t7 -15.5v-322q0 -10 -7.5 -17.5t-17.5 -7.5t-17 7.5t-7 17.5v295h-110v-742h789v421h-98q-11 0 -18 7t-7 17t7 17t18 7h123q11 0 18 -6t7 -16v-470q0 -10 -7.5 -17.5t-17.5 -7.5zM495 326h52v-52h-52v52zM721 326h52v-52h-52v52zM269 326h52v-52h-52v52z" />
    <glyph glyph-name="uniE60E" unicode="&#xe60e;" 
d="M323 561q28 18 45 46.5t17 63.5q0 52 -37 89.5t-89.5 37.5t-89.5 -37.5t-37 -89.5q0 -35 17 -64.5t46 -45.5q-53 -19 -88.5 -61.5t-43.5 -97.5h390q-8 55 -43.5 97.5t-86.5 61.5zM831 129q28 18 45.5 47t17.5 63q0 53 -37 90t-90 37t-90 -37t-37 -90q0 -35 17 -64.5
t46 -45.5q-53 -18 -88.5 -60.5t-43.5 -98.5h390q-8 56 -43.5 98.5t-86.5 60.5zM488 695h173v-47h-173v47zM359 18h173v-47h-173v47zM819 522h46v126v47h-46h-126v-47h126v-126v0zM187 144h-46v-126v-47h46h126v47h-126v126zM141 366h46v-173h-46v173zM411 695h46v-47h-46v47
zM819 482h46v-80h-46v80z" />
    <glyph glyph-name="uniE60F" unicode="&#xe60f;" 
d="M512 627h1q89 0 151.5 -64t62.5 -155q0 -87 -60 -174q47 25 82 69.5t35 104.5q0 115 -79.5 195.5t-191.5 80.5h-1q-112 0 -191.5 -80.5t-79.5 -195.5q0 -60 34.5 -104.5t81.5 -69.5q-59 87 -60 174q1 91 63.5 155t151.5 64zM512 832q-113 0 -209 -57t-151.5 -154.5
t-55.5 -212.5q0 -92 38 -175q69 -154 250 -202l-7 15q-62 31 -112 88t-80 123q-32 72 -33 151q1 100 49 184t130.5 133t180.5 49t180.5 -49t130.5 -133t48 -184q0 -112 -60.5 -212.5t-156.5 -148.5l-6 -17q125 39 202.5 140.5t77.5 237.5q0 115 -55.5 212.5t-151.5 154.5
t-209 57zM513 343q-29 0 -52 -6.5t-35.5 -16t-20.5 -18.5t-11 -16l-3 -6q-5 -67 13 -151t36 -132t21 -51q21 -10 51 -10q14 0 26.5 2.5t18.5 5.5l6 2q4 8 9 21t18.5 53t23 78.5t16 89t3.5 92.5l-11 19q-32 44 -109 44zM420 467q0 -39 27 -66t65 -27t65 27t27 65.5t-27 66
t-65 27.5t-65 -27.5t-27 -65.5zM420 467z" />
    <glyph glyph-name="uniE610" unicode="&#xe610;" 
d="M400 830q-55 0 -93.5 -38t-38.5 -91.5t38.5 -91t93 -37.5t93 37.5t38.5 91t-38.5 91.5t-92.5 38zM400 624q-33 0 -56.5 22.5t-23.5 54.5t23.5 54.5t56 22.5t56 -22.5t23.5 -54.5t-23.5 -54.5t-55.5 -22.5zM215 650q-55 0 -93.5 -37.5t-38.5 -91t38.5 -91t93.5 -37.5
t93.5 37.5t38.5 91t-38.5 91t-93.5 37.5zM215 444q-33 0 -56 23t-23 55t23 54.5t56 22.5t56 -22.5t23 -54.5t-23 -55t-56 -23zM198 399q-55 0 -93.5 -38t-38.5 -91.5t38.5 -91t93 -37.5t93 37.5t38.5 91t-38.5 91.5t-92.5 38zM198 192q-33 0 -56.5 23t-23.5 55t23.5 54.5
t56 22.5t56 -22.5t23.5 -54.5t-23.5 -55t-55.5 -23zM362 196q-54 0 -92.5 -37.5t-38.5 -91t38.5 -91.5t93 -38t93 38t38.5 91.5t-38.5 91t-93.5 37.5zM362 -10q-32 0 -55.5 22.5t-23.5 54.5t23.5 54.5t56 22.5t56 -22.5t23.5 -54.5t-23.5 -54.5t-56.5 -22.5zM626 196
q-54 0 -93 -37.5t-39 -91t39 -91.5t93.5 -38t93 38t38.5 91.5t-38.5 91t-93.5 37.5zM626 -10q-33 0 -56 22.5t-23 54.5t23 54.5t56 22.5t56 -22.5t23 -54.5t-23 -54.5t-56 -22.5zM817 373q-54 0 -93 -38t-39 -91t39 -91t93.5 -38t93 38t38.5 91t-38.5 91t-93.5 38zM817 167
q-33 0 -56 22.5t-23 54.5t23 54.5t56 22.5t56 -22.5t23 -54.5t-23 -54.5t-56 -22.5zM826 630q-54 0 -92.5 -37.5t-38.5 -91t38.5 -91t93 -37.5t93 37.5t38.5 91t-38.5 91t-93.5 37.5zM826 424q-32 0 -55.5 23t-23.5 55t23.5 54.5t56 22.5t56 -22.5t23.5 -54.5t-23.5 -55
t-56.5 -23zM658 830q-54 0 -93 -38t-39 -91.5t39 -91t93.5 -37.5t93 37.5t38.5 91t-38.5 91.5t-93.5 38zM658 624q-33 0 -56 22.5t-23 54.5t23 54.5t56 22.5t56 -22.5t23 -54.5t-23 -54.5t-56 -22.5z" />
    <glyph glyph-name="uniE611" unicode="&#xe611;" 
d="M761 207q-33 43 -131 188l45 114q6 14 -5 24q-6 7 -45 13v13h77v25l19 -7q13 9 19.5 19t5.5 16l-1 6q-89 26 -138.5 50t-54.5 35l-5 11h-26v26q17 4 28.5 15t11.5 28q0 19 -14.5 33t-34.5 14t-34.5 -14t-14.5 -33q0 -5 3.5 -8.5t8.5 -3.5t8.5 3.5t3.5 8.5q0 10 7 17t18 7
t18.5 -7t7.5 -17.5t-7.5 -17.5t-18.5 -7q-16 0 -16 -6v-38h-26q-13 -24 -60.5 -50t-85.5 -41t-41 -15q-7 -8 -2 -17t15 -16l9 -8l23 17v-25h77v-13q-3 -1 -12.5 -1.5t-15.5 -1.5t-14 -3t-13 -6q-15 -10 -8 -27l49 -119q-10 -25 -64 -92q-9 -9 -20 -22.5t-33 -47.5t-37 -68.5
t-24 -82t-1 -91.5q1 -7 6 -12q4 -4 10.5 -9.5t27 -14t41.5 -8.5t42 8q22 -7 44 -7t40 8q27 -11 53 -11q21 0 40 7q21 -5 41 -5q25 0 44 8q26 -7 49 -7t40 8q21 -4 40 -4q52 0 79 27q6 6 7 15v19q0 10 -3 39t-8 54.5t-16.5 56t-27.5 51.5zM392 610h-13l130 65l142 -65h-26
h-39h-142h-26h-26zM586 559v-13q-21 -10 -26 -13l-52 -31l-51 31q-1 0 -6 6t-7 7v13h142zM404 495q9 0 15 -5q1 -1 4 -3l73 -44q12 -7 24 0l65 39q2 1 3 2q15 12 29 12q4 0 8 -1l-39 -79h-155l-39 76q6 3 12 3zM730 3q-25 0 -38 4q-10 3 -18 -3q-8 -5 -24 -5q-22 0 -43 7
q-10 4 -20 -1q-11 -7 -30 -7h-6h-6l-6 2q-3 0 -5 0.5t-4 0.5t-4 0.5t-3 1l-1 0.5h-1q-9 3 -18 -1q-12 -6 -26 -6q-18 0 -43 11q-5 2 -11 2q-7 0 -12 -3q-12 -7 -28 -7q-8 0 -16.5 1.5t-12.5 3.5l-5 2q-10 4 -20 0q-16 -8 -32 -8q-8 0 -13 2t-9 6.5t-6 5.5q-5 37 4.5 76.5
t23 67.5t33.5 56t28.5 37.5t15.5 16.5q0 1 0.5 1t0.5 1q56 68 69 97h142q6 -9 34 -51.5t52.5 -79t39.5 -55.5q43 -56 44 -168q-14 -8 -26 -8z" />
    <glyph glyph-name="uniE612" unicode="&#xe612;" 
d="M1024 457h-439v439h-110v-439h-438v-110h438v-438h110v438h439v110z" />
    <glyph glyph-name="uniE613" unicode="&#xe613;" 
d="M127 451v87q2 27 36 31h306q22 -2 26 -26q-2 -26 -24 -26h-285q-11 -2 -11 -9v-102q0 -138 -34 -207q-14 -22 -36 -15q-21 10 -11 33q35 58 33 234zM726 475v68q0 34 29 34h133q31 0 31 -26v-155q4 -53 -58 -50q-25 -2 -40 2q-17 1 -17 20q3 21 20 23q57 -9 49 12v9h-100
q-9 -28 -24 -49q-13 -19 -23 -22h149q22 -2 24 -33v-66h20q18 0 19 -24q-1 -24 -19 -26h-369q-21 2 -21 26t21 24h16v71q0 28 24 28h105q-21 10 5 41t26 93zM548 405v141q0 28 31 30h90q31 0 31 -30v-136q0 -38 -24 -35h-100q-29 -3 -28 30zM598 419h50q6 0 6 5v27h-61v-27
q0 -5 5 -5zM595 496h60v30q0 5 -5 5h-50q-5 0 -5 -5v-30zM662 242v52h-43q-10 0 -9 -7v-45h52zM705 242h50v51h-50v-51zM774 513h99v13q0 6 -5 6h-87q-8 0 -7 -6v-13zM774 472v-21h99v21h-99zM799 293v-51h51v42q0 7 -5 9h-46z" />
    <glyph glyph-name="uniE614" unicode="&#xe614;" 
d="M710 451h38v-13h-38v13zM570 489h30v-21h-30v21zM570 415h23q7 0 7 7v14h-30v-21zM710 489h38v-13h-38v13zM512 826q-90 0 -172 -35t-141 -94t-94 -141t-35 -172t35 -172t94 -141t141 -94t172 -35t172 35t141 94t94 141t35 172t-35 172t-94 141t-141 94t-172 35zM504 481
h-215v-208q0 -28 -28 -28h-32l-7 39h12q7 0 7 7v229h24h24h215v-39zM655 402q8 0 8 7v114h132v-120q0 -29 -28 -29h-32l-6 28h12q7 0 7 7v3h-38v-9q-1 -29 -29 -29h-23l-6 28h3zM525 397v18v108h22h23h30h22h23v-115q0 -28 -28 -28h-92v17zM802 245h-283v39h9v43v18v19h216
h24h24v-80h10v-39zM647 327h24v-43h-24v43zM576 327h25v-43h-25v43zM717 327h27v-43h-27v43z" />
    <glyph glyph-name="uniE615" unicode="&#xe615;" 
d="M707 487l-235 -235q-2 -2 -4 -3q-15 -13 -23 -5l-133 133q-3 4 -1 11.5t8.5 14t14 8.5t11.5 -2l110 -109l220 220q6 6 16 6t16.5 -6.5t6.5 -16t-7 -16.5zM512 785q109 0 201 -54t146 -146t54 -201t-54 -201t-146 -146t-201 -54t-201 54t-146 146t-54 201t54 201t146 146
t201 54zM512 -63q91 0 173.5 35.5t142.5 95.5t95.5 142.5t35.5 173.5t-35.5 173.5t-95.5 142.5t-142.5 95.5t-173.5 35.5t-173.5 -35.5t-142.5 -95.5t-95.5 -142.5t-35.5 -173.5t35.5 -173.5t95.5 -142.5t142.5 -95.5t173.5 -35.5z" />
    <glyph glyph-name="uniE616" unicode="&#xe616;" 
d="M512 -62q-15 0 -29 1t-26 10.5t-17 22.5l-28 80q-4 10 -13 13h-1l-32 13q-3 2 -9 2t-9 -2l-77 -36q-9 -4 -20 -4q-19 0 -33 12l-40 40q-9 11 -11.5 26t3.5 28l36 76q2 3 2 9t-2 9v1l-13 32q-3 10 -13 13l-80 28q-13 5 -22.5 17t-10.5 26t-1 29q0 14 1 29q1 14 10.5 26
t22.5 17l80 28q10 4 13 13v1l13 32q2 3 2 9t-2 9l-36 77q-6 12 -3.5 27t11.5 26l40 40q14 12 33 12q11 0 20 -4l77 -36q3 -2 9 -2t9 2h1l32 13q9 3 13 13l28 80q5 13 17 22t26 11q15 1 29 1t29 -1q14 -2 26 -11t17 -22l28 -80q4 -10 13 -13h1l32 -13q3 -2 9 -2t9 2l77 36
q9 4 20 4q19 0 33 -12l40 -40q9 -11 11.5 -26t-3.5 -27l-36 -77q-2 -3 -2 -9t2 -9v-1l13 -32q3 -9 13 -13l80 -28q13 -5 22.5 -17t10.5 -26t1 -29t-1 -29t-10.5 -26t-22.5 -17l-80 -28q-10 -4 -13 -13v-1l-13 -32q-2 -3 -2 -9t2 -9l36 -76q6 -13 3.5 -28t-11.5 -26l-40 -40
q-14 -12 -34 -12q-10 0 -20 4l-76 36q-3 2 -9 2t-9 -2h-1l-32 -13q-10 -3 -13 -13l-28 -80q-5 -13 -17 -22.5t-26 -10.5q-15 -1 -29 -1zM412 101q12 -4 22 -14t14 -22l29 -80q2 -7 9 -7q2 -1 26 -1q20 0 26 1q7 0 9 7l29 80q4 12 14 22t22 14l29 13q12 5 26 5t26 -6l76 -36
h3q5 0 8 1l38 38q4 6 1 11l-36 76q-12 26 -1 52l13 29q4 12 14 22t22 14l80 29q6 2 7 9q1 2 1 26q0 14 -1 26q-1 7 -7 9l-80 29q-12 4 -22 14t-14 22l-13 30q-11 25 1 51l36 76q3 5 -1 11l-38 38q-3 2 -8 2q-2 0 -3 -1l-76 -36q-12 -6 -26 -6t-25 6l-30 12q-12 4 -22 14
t-14 22l-29 80q-2 7 -9 7q-12 1 -26 1t-26 -1q-7 0 -9 -7l-29 -80q-4 -12 -14 -22t-22 -14l-30 -12q-11 -6 -25 -6q-15 0 -26 6l-76 36q-1 1 -4 1q-4 0 -7 -2l-38 -38q-4 -5 -1 -11l36 -76q12 -26 0 -51l-12 -30q-4 -12 -14 -22t-22 -14l-80 -29q-7 -2 -7 -9q-1 -12 -1 -26
q0 -21 1 -26q0 -7 7 -9l80 -29q12 -4 22 -14t14 -22l12 -30q12 -25 0 -51l-36 -76q-3 -6 1 -11l38 -38q3 -2 8 -2q2 0 3 1l76 36q11 6 26 6q14 0 25 -6zM512 171q-88 0 -150.5 62.5t-62.5 150.5t62.5 150.5t150.5 62.5t150.5 -62.5t62.5 -150.5t-62.5 -150.5t-150.5 -62.5z
M512 558q-72 0 -123.5 -51t-51.5 -123t51.5 -123.5t123.5 -51.5t123 51.5t51 123.5t-51 123t-123 51zM512 558zM512 277q-44 0 -75.5 31.5t-31.5 75.5t31.5 75.5t75.5 31.5t75 -31.5t31 -75.5t-31 -75.5t-75 -31.5zM512 452q-28 0 -48 -20t-20 -48t20 -48t48 -20t48 20
t20 48t-20 48t-48 20zM512 452z" />
    <glyph glyph-name="uniE617" unicode="&#xe617;" 
d="M512 133l446 446l-55 56l-391 -391l-391 391l-55 -56l390 -390z" />
    <glyph glyph-name="uniE618" unicode="&#xe618;" 
d="M943 36l-204 208q-1 1 -3 2l-3 2q68 96 68 213q0 100 -49.5 184.5t-134 133.5t-184.5 49t-184.5 -49t-134 -133.5t-49.5 -184.5t49.5 -185t134 -134t184.5 -49q124 0 223 76q0 -1 1 -2.5t2 -1.5l203 -208q16 -17 40 -17q23 0 40 16q16 16 16.5 39.5t-15.5 40.5zM122 461
q0 128 91 219.5t220 91.5t220 -91.5t91 -220t-91 -219.5t-220 -91t-220 91t-91 220z" />
    <glyph glyph-name="uniE619" unicode="&#xe619;" 
d="M678 422l-200 -201l-86 94q-8 9 -18.5 11t-18.5 -5q-7 -8 -5 -18t10 -19l99 -101v-1l6 -3l1 -1q1 -1 2 -1q5 -2 10 -2t10 2q1 0 1.5 0.5t1.5 0.5q4 3 6 4v1l207 208q19 19 6 31q-16 16 -32 0zM832 706h-152v107q0 8 -5.5 13.5t-13.5 5.5t-13.5 -5.5t-5.5 -13.5v-107h-274
v107q0 8 -5.5 13.5t-13.5 5.5t-13.5 -5.5t-5.5 -13.5v-107h-140q-52 0 -88.5 -36.5t-36.5 -87.5v-518q0 -51 36.5 -87.5t88.5 -36.5h642q51 0 87.5 36.5t36.5 87.5v518q0 51 -36.5 87.5t-87.5 36.5zM919 64q0 -36 -25.5 -61t-61.5 -25h-642q-36 0 -61.5 25t-25.5 61v518
q0 36 25.5 61t61.5 25h140v-95q0 -8 5.5 -13.5t13.5 -5.5t13.5 5.5t5.5 13.5v95h274v-95q0 -8 5.5 -13.5t13.5 -5.5t13.5 5.5t5.5 13.5v95h152q36 0 61.5 -25t25.5 -61v-518z" />
    <glyph glyph-name="uniE61A" unicode="&#xe61a;" 
d="M513 584q-61 0 -99.5 -37t-38.5 -112t38.5 -112.5t96.5 -37.5q22 0 41 6q-31 18 -62 27l28 50q50 -15 95 -44q20 20 29 47q10 28 10 64q0 75 -38 112t-100 37zM959 439q0 106 -60 197t-163 143.5t-224 52.5t-224 -52.5t-163 -143.5t-60 -197q0 -92 45 -172.5t124 -135.5
q35 -29 81.5 -55t92 -45t93 -35.5t87.5 -27t71.5 -18t49.5 -10.5l18 -4l-40 141q122 45 197 143.5t75 218.5zM737 177q-23 6 -45 16q-4 2 -67 38q-49 -18 -108 -18q-115 0 -180.5 58.5t-65.5 163.5q0 106 65.5 164.5t177.5 58.5q111 0 176 -58.5t65 -164.5q0 -55 -18 -98
q-14 -32 -44 -62q37 -23 81 -37z" />
    <glyph glyph-name="uniE61B" unicode="&#xe61b;" 
d="M758 310l-1 10l-1 4l-2 5l-1 4l-2 6l-2 5l-3 5l-4 8l-3 7l-4 7l-2 6l-4 5l-2 5l-5 8l-7 10l-2 3h-1v1l2 4l1 3l1 5l1 4v3l1 2v3l-1 3l-1 3v4l-1 5l-2 4l-2 4l-1 4l-2 3l-2 3l-3 5l-1 2v1l-2 10l-1 5v8l-2 7l-2 9l-2 5l-1 4l-1 5l-2 5l-2 5l-2 5l-4 10l-2 5l-4 5l-3 4
l-3 6l-4 5l-3 4l-4 5l-5 5l-4 4l-5 4l-3 2l-2 2l-6 4l-6 4l-7 4l-7 3l-7 3l-7 3l-7 3l-8 1l-7 2l-8 2l-8 2l-7 1h-8l-8 2h-8h-7h-8l-7 -1l-8 -1l-7 -1l-8 -1l-7 -1l-7 -2l-6 -2l-7 -2l-7 -3l-6 -3l-6 -2l-6 -3l-5 -4l-5 -3l-6 -4l-4 -4l-7 -6l-5 -5l-5 -6l-5 -6l-5 -5l-4 -6
l-3 -5l-2 -3l-2 -3l-4 -5l-3 -6l-2 -5l-2 -5l-2 -4l-2 -5l-2 -5l-2 -4l-1 -8l-3 -8v-7l-1 -5v-4v-4v-3l-2 -2l-1 -2l-1 -2l-1 -2l-2 -5l-1 -5v-3v-4v-2l-4 -4l-2 -5l-2 -4l-1 -4l-1 -4l-1 -3v-3v-3v-3l1 -2l1 -4l1 -3l-2 -1l-5 -3l-6 -6l-4 -4l-4 -3l-3 -2l-2 -3l-4 -5
l-5 -4l-3 -5l-4 -6l-4 -6l-5 -6l-3 -5l-3 -6l-3 -6l-1 -5l-3 -6l-1 -6l-2 -6l-2 -5v-5l-1 -5l-1 -5l-1 -9v-9v-4l1 -4v-6l1 -3l1 -3l1 -3v-2l3 -3v-1l1 -2h1h2h1h1l5 2l3 1l4 2l3 2l3 3l3 2l2 3l3 3l3 3l1 3l2 2l2 5l1 2l1 1v1l1 2h1v0h1h1l1 -7l1 -5l3 -5l2 -5l2 -4l2 -5
l2 -4l3 -4l2 -3l2 -4l5 -6l5 -5l5 -5l4 -4l4 -3l5 -2l3 -1v-1l-1 -1l-4 -1h-4h-4l-3 -1l-4 -1l-3 -1l-2 -1l-2 -1l-3 -1l-2 -2l-1 -1l-2 -1l-3 -3l-1 -2l-1 -1l-1 -3l-1 -2l-1 -3v-2v-3v-1l-1 -2v-3v-2v-2v-2l1 -1l1 -4l1 -1v-3l2 -1l1 -2l2 -1l1 -1l4 -3l4 -3l4 -2l5 -2
l6 -1l5 -2l6 -2l5 -1l7 -1l5 -1l7 -1l13 -1l13 -1h12h5h6l5 1l5 1h5h4l7 2l5 1l5 1l9 4l4 1l4 2l6 4l6 2l4 3l4 3h4l4 -1l7 -1h4h3h2l2 -1l4 -1l4 -2l8 -2l7 -3l8 -1l8 -2l8 -2l8 -2h8l7 -1l8 -1l7 -1h8h7h7l7 2h7l6 1l7 1l5 2l6 1h2l3 2l5 1l4 3l5 1l4 3l4 2l1 2l1 1l3 3
l1 3l2 2v1l1 2v1v2l1 2l-1 2v2l-1 3l-1 2l-1 3l-2 2l-2 2l-2 2l-4 4l-6 4l-5 3l-6 3l-12 6l-3 1l5 5l2 2l3 3l4 6l4 6l3 6l3 5l5 11l3 8l2 6l2 2v2l1 1h1l3 -7l3 -5l3 -4l2 -3l2 -4l2 -3l3 -2l1 -2l1 -1l2 -1l1 -1l2 -1l2 -1h2l1 1l2 1h2l2 2l1 1l1 2l2 2l1 2l1 2l2 3v3l2 5
l2 7v7l1 4v3v4v4l-1 8zM673 210v1l1 1zM512 831q-91 0 -173.5 -35.5t-142.5 -95.5t-95.5 -142.5t-35.5 -173.5t35.5 -173.5t95.5 -142.5t142.5 -95.5t173.5 -35.5t173.5 35.5t142.5 95.5t95.5 142.5t35.5 173.5t-35.5 173.5t-95.5 142.5t-142.5 95.5t-173.5 35.5zM512 -25
q-111 0 -205.5 54.5t-149 149t-54.5 205.5t54.5 205.5t149 149t205.5 54.5t205.5 -54.5t149 -149t54.5 -205.5t-54.5 -205.5t-149 -149t-205.5 -54.5z" />
    <glyph glyph-name="uniE61C" unicode="&#xe61c;" 
d="M512 831q-91 0 -173.5 -35.5t-142.5 -95.5t-95.5 -142.5t-35.5 -173.5t35.5 -173.5t95.5 -142.5t142.5 -95.5t173.5 -35.5t173.5 35.5t142.5 95.5t95.5 142.5t35.5 173.5t-35.5 173.5t-95.5 142.5t-142.5 95.5t-173.5 35.5zM512 -25q-111 0 -205.5 54.5t-149 149
t-54.5 205.5t54.5 205.5t149 149t205.5 54.5t205.5 -54.5t149 -149t54.5 -205.5t-54.5 -205.5t-149 -149t-205.5 -54.5zM673 443q-1 -8 -2 -14q-9 -62 -53 -102.5t-103 -40.5h-25l-5 -5q13 -25 36.5 -39.5t50.5 -14.5h26l50 -52q5 -6 12 -6q3 0 6 2q11 4 11 15v43
q35 7 58 37t23 70t-24.5 70.5t-60.5 36.5zM647 432q2 12 2 22q0 60 -39.5 102.5t-94.5 42.5h-115q-56 0 -95 -42.5t-39 -102.5q0 -53 31.5 -93t78.5 -49v-61q0 -13 13 -18q3 -1 7 -1q8 0 14 6l69 72h36q50 0 87.5 34.5t44.5 87.5zM363 499h187q10 0 10 -10t-10 -10h-187
q-10 0 -10 10t10 10zM475 405h-112q-10 0 -10 10.5t10 10.5h112q10 0 10 -10.5t-10 -10.5zM475 405z" />
    <glyph glyph-name="uniE61D" unicode="&#xe61d;" 
d="M894 766q28 0 46 -18t18 -46v-477q0 -28 -18 -46t-46 -18h-764q-28 0 -46 18t-18 46v477q0 28 18 46t46 18h764zM130 734q-32 0 -32 -32v-350h828v350q0 32 -32 32h-764zM894 193q32 0 32 32v95h-828v-95q0 -32 32 -32h764v0zM639 48q-4 -46 -47 -46h-160q-43 0 -47 46v2
v2v2l16 63q4 16 19.5 12t11.5 -20l-15 -61q0 -14 15 -14h160q16 0 16 14l-16 61q-4 16 11.5 20t19.5 -12l16 -63v-2v-2v-2zM480 257q0 31 32 31t32 -31.5t-32 -31.5t-32 32z" />
    <glyph glyph-name="uniE61E" unicode="&#xe61e;" 
d="M828 220h-292q-7 0 -11.5 -4.5t-4.5 -11.5q0 -16 16 -16h292q6 0 11 5t5 11q0 16 -16 16zM828 81h-292q-7 0 -11.5 -4.5t-4.5 -11.5q0 -16 16 -16h292q7 0 11.5 5t4.5 11q0 16 -16 16zM911 330h-19h-199q-73 73 -179 98q53 27 85.5 78.5t32.5 112.5q0 88 -61.5 150
t-149 62t-149 -63t-61.5 -151q0 -61 32 -112t85 -77q-116 -28 -190 -111t-74 -189q0 -7 4.5 -11.5t11.5 -4.5q16 0 16 16q0 115 95.5 196t231.5 81q127 0 220 -75h-172q-27 0 -46.5 -19t-19.5 -46v-262q0 -27 19 -46t47 -19h421q27 0 46.5 19t19.5 46v262q0 65 -47 65z
M243 617q0 75 52 128t126 53t126.5 -53t52.5 -128q0 -69 -46 -120t-113 -59q-10 1 -20 1q-9 0 -19 -1q-68 8 -113.5 59t-45.5 120zM924 3q0 -13 -9.5 -23t-22.5 -10h-421q-13 0 -22.5 9.5t-9.5 23.5v262q0 13 9.5 23t22.5 10h421q13 0 22.5 -9.5t9.5 -23.5v-262z" />
    <glyph glyph-name="uniE61F" unicode="&#xe61f;" 
d="M512 831q-91 0 -173.5 -35.5t-142.5 -95.5t-95.5 -142.5t-35.5 -173.5t35.5 -173.5t95.5 -142.5t142.5 -95.5t173.5 -35.5t173.5 35.5t142.5 95.5t95.5 142.5t35.5 173.5t-35.5 173.5t-95.5 142.5t-142.5 95.5t-173.5 35.5zM512 -25q-111 0 -205.5 54.5t-149 149
t-54.5 205.5t54.5 205.5t149 149t205.5 54.5t205.5 -54.5t149 -149t54.5 -205.5t-54.5 -205.5t-149 -149t-205.5 -54.5zM695 579h-366q-20 0 -40.5 -13t-20.5 -29v-9q8 -7 22 -18.5t52 -40.5t68.5 -51.5t60.5 -41t41 -18.5q36 0 240 166l4 4v9q0 16 -20.5 29t-40.5 13z
M268 460v-241q2 -4 7 -9t21 -13t33 -8h366q16 0 31.5 7.5t22.5 14.5l7 8v241q-7 -6 -19 -16t-46 -36.5t-63.5 -46.5t-62.5 -36.5t-53 -16.5q-31 0 -91.5 38t-107.5 76t-45 38v0zM268 460z" />
    <glyph glyph-name="uniE620" unicode="&#xe620;" 
d="M512 831q-91 0 -173.5 -35.5t-142.5 -95.5t-95.5 -142.5t-35.5 -173.5t35.5 -173.5t95.5 -142.5t142.5 -95.5t173.5 -35.5t173.5 35.5t142.5 95.5t95.5 142.5t35.5 173.5t-35.5 173.5t-95.5 142.5t-142.5 95.5t-173.5 35.5zM512 -25q-111 0 -205.5 54.5t-149 149
t-54.5 205.5t54.5 205.5t149 149t205.5 54.5t205.5 -54.5t149 -149t54.5 -205.5t-54.5 -205.5t-149 -149t-205.5 -54.5zM659 625q-3 2 -14 8t-15.5 8t-15 6t-16.5 3.5t-14.5 -2t-14.5 -7t-13 -15.5t-12 -25q-10 -27 -12 -45t5.5 -29.5t14.5 -16.5t24 -14q4 -2 7 -3
q32 -16 -27 -136q-26 -52 -49.5 -82t-41.5 -21q-3 1 -7 3q-16 9 -25 12t-22.5 2t-26.5 -13.5t-28 -36.5q-9 -13 -12.5 -24.5t-4.5 -20t3 -16.5t7.5 -13t12.5 -11t13.5 -8.5t16 -8t14.5 -6.5q35 -18 104 38.5t123 166.5q37 74 50 143t5.5 111t-29.5 53z" />
    <glyph glyph-name="uniE621" unicode="&#xe621;" 
d="M943 60h-354l-33 108h315q30 0 51 21t21 51v432q0 29 -21 50t-51 21h-718q-30 0 -51 -21t-21 -50v-432q0 -30 21 -51t51 -21h292l-33 -108h-331q-8 0 -13 -5t-5 -12.5t5 -12.5t13 -5h862q8 0 13 5t5 12.5t-5 12.5t-13 5zM456 204h-303q-15 0 -25.5 10.5t-10.5 25.5v432
q0 14 10.5 25t25.5 11h718q15 0 25.5 -11t10.5 -25v-432q0 -15 -10.5 -25.5t-25.5 -10.5h-326h-89zM661 503h23v-254h-23v254zM563 439h23v-190h-23v190zM465 408h23v-159h-23v159zM367 344h23v-95h-23v95zM671 550l18 112l-107 -25l35 -34q-26 -28 -96 -106q-5 6 -16 16.5
t-16 15.5l-16 17v-1l-1 1q-11 -12 -16 -17l-121 -121q3 -4 16 -17q3 2 122 122q6 -7 14 -15t17 -16t14 -15q2 -1 3 -3q3 3 8 9q19 21 54.5 59.5t49.5 54.5z" />
    <glyph glyph-name="uniE622" unicode="&#xe622;" 
d="M581 382zM912.5 785q-46.5 47 -112.5 47q-54 0 -96 -32l-2 -1l-179 -180q-48 -48 -47 -112q0 -33 13 -64v0v0q1 -2 3 -5l40 19q-1 3 -2 5l-20 -10l20 10q-9 21 -9 45q0 45 34 80l177 178q30 22 68 22q47 0 80.5 -33.5t33.5 -81.5q0 -37 -22 -67l-164 -165l-1 -1
q-34 -46 -92 -46q-24 0 -45 10l-18 -42q30 -13 63 -13q39 0 73 17q32 17 54 45l165 165l1 1q32 43 32 96q-1 66 -47.5 113zM224 -64q-66 0 -112.5 47t-47.5 113q0 63 48 112l179 179l2 1q42 32 96 32q33 0 63 -13l-18 -42q-21 10 -45 10q-38 0 -68 -22l-177 -177
q-34 -35 -34 -80q0 -48 33.5 -81.5t80.5 -33.5q58 1 92 46l1 2l164 164q22 30 22 68q0 24 -9 45l41 19q13 -31 13 -64q1 -54 -31 -96l-1 -2l-165 -164q-22 -29 -54 -45q-34 -18 -73 -18zM619 524l32 -33l-246 -247l-32 33z" />
    <glyph glyph-name="uniE623" unicode="&#xe623;" 
d="M789 815h-551q-22 0 -38 -8.5t-23 -20.5t-11.5 -24t-4.5 -21l-1 -8v-698q0 -3 0.5 -8.5t5 -19.5t11.5 -25t23.5 -20t38.5 -9h456l169 144v636q0 3 -0.5 8.5t-5 19.5t-11.5 25t-22.5 20t-35.5 9v0zM826 117l-152 -123h-419q-25 0 -39.5 15.5t-15.5 30.5l-2 16v656
q0 3 0.5 7t3.5 14.5t8.5 18.5t17 15t27.5 7h514q25 0 39.5 -15.5t15.5 -30.5l2 -16v-595v0zM293 363h438v-41h-438v41v0zM293 528h438v-41h-438v41v0zM293 692h209v-41h-209v41v0zM788 220h-133h-38v-41v-144h38v144h133v41z" />
    <glyph glyph-name="uniE624" unicode="&#xe624;" 
d="M678 361h-332q-10 0 -16.5 6.5t-6.5 16.5t6.5 16.5t16.5 6.5h332q10 0 16.5 -6.5t6.5 -16.5t-6.5 -16.5t-16.5 -6.5zM512 -63q-91 0 -173.5 35.5t-142.5 95.5t-95.5 142.5t-35.5 173.5t35.5 173.5t95.5 142.5t142.5 95.5t173.5 35.5t173.5 -35.5t142.5 -95.5t95.5 -142.5
t35.5 -173.5t-35.5 -173.5t-95.5 -142.5t-142.5 -95.5t-173.5 -35.5zM512 785q-109 0 -201 -54t-146 -146t-54 -201t54 -201t146 -146t201 -54t201 54t146 146t54 201t-54 201t-146 146t-201 54z" />
    <glyph glyph-name="uniE625" unicode="&#xe625;" 
d="M604 211l-155 155l356 356q-126 110 -293 110q-91 0 -174 -35.5t-143 -95.5t-95.5 -143t-35.5 -174t35.5 -174t95.5 -143t143 -95.5t174 -35.5t174 35.5t143 95.5t95.5 143t35.5 174q0 79 -29 155zM364 126l57 212l155 -155z" />
    <glyph glyph-name="uniE626" unicode="&#xe626;" 
d="M930 554h-647q-12 0 -20.5 7t-8.5 16q0 10 8.5 16.5t20.5 6.5h647q12 0 20.5 -6.5t8.5 -16.5q0 -9 -8.5 -16t-20.5 -7zM930 -42h-647q-12 0 -20.5 6.5t-8.5 15.5q0 10 8.5 16.5t20.5 6.5h647q12 0 20.5 -6.5t8.5 -16.5q0 -9 -8.5 -15.5t-20.5 -6.5zM857 291l-490 -89
q-9 -2 -17.5 2t-10.5 11t3 13.5t14 7.5l490 90q9 2 17.5 -2t10.5 -11q2 -8 -3 -14t-14 -8zM857 207l-490 -89q-9 -2 -17.5 2t-10.5 11t3 13.5t14 7.5l490 90q9 2 17.5 -2t10.5 -11t-3 -13.5t-14 -8.5zM857 123l-490 -89q-9 -2 -17.5 2t-10.5 11t3 13.5t14 7.5l490 90
q9 2 17.5 -2t10.5 -11t-3 -13.5t-14 -8.5zM350 484q-7 0 -12.5 5.5t-5.5 13.5t5.5 14t12.5 6h521zM857 59q9 0 9 -11t-9 -11h-256zM65 562zM874 396q2 -7 -3 -13.5t-14 -8.5l-490 -89q-5 -1 -11 0v-8l-19 -56q0 21 -16 -1q-11 -13 -23 -22q0 -1 -6 -8.5t-13 -14t-23 -12
t-36 -5.5q-39 0 -64.5 23t-30.5 43q-4 12 -15 36l-10 24q-5 13 -5 28q0 10 5 68.5t13.5 175t15.5 239.5q1 15 2 15t2 -15q33 -466 33 -483q0 -14 -4 -26q-14 -40 -9 -59q6 -22 26.5 -33.5t43.5 -11.5q12 0 19.5 3.5t20.5 15t15 12.5q41 33 56 109l2 12q1 6 1.5 10t0.5 8v6v1
v3q-1 4 -1 10v14q0 4 2 8q-2 7 3.5 12.5t13.5 7.5l490 89q9 2 17.5 -2t10.5 -11t-3 -13.5t-14 -7.5l-490 -90q-5 -1 -11 0v-60l490 90q9 2 17.5 -2t10.5 -11zM129 341q-6 0 -11 -8t-5 -19t5 -19t11.5 -8t11.5 8t5 19t-5 19t-12 8z" />
    <glyph glyph-name="uniE627" unicode="&#xe627;" 
d="M729 315zM958 385q0 91 -35.5 173.5t-95 142t-142 95t-173.5 35.5t-173.5 -35.5t-142.5 -95t-95.5 -142t-35.5 -173.5t35.5 -173.5t95.5 -142.5t142.5 -95.5t173.5 -35.5q75 0 146 25l258 -25l-84 136q60 61 93 141.5t33 169.5zM578 79h-112v102h112v-102zM622 352
q-59 -39 -56 -88v-21h-88v23q-3 88 82 150q82 56 73 117q-8 71 -88 77q-105 2 -123 -106l-94 26q38 173 226 165q164 -9 179 -165q3 -96 -111 -178z" />
  </font>
</defs>
</svg>
